<svg width="49" height="62" viewBox="0 0 49 62" fill="none" xmlns="http://www.w3.org/2000/svg">
<path d="M24.5 0C27.9612 0 31.3446 0.909059 34.2225 2.61222C37.1003 4.31538 39.3434 6.73615 40.6679 9.56841C41.9924 12.4007 42.339 15.5172 41.6637 18.5239C40.9885 21.5306 39.3218 24.2924 36.8744 26.4602C34.4269 28.6279 31.3087 30.1041 27.9141 30.7022C24.5194 31.3002 21.0007 30.9933 17.803 29.8201C14.6053 28.647 11.8722 26.6603 9.94928 24.1113C8.02636 21.5624 7 18.5656 7 15.5L7.0175 14.8273C7.21322 10.8368 9.14062 7.06731 12.3978 4.30484C15.6549 1.54238 19.9904 0.000230772 24.5 0ZM31.5 37.2C36.1413 37.2 40.5925 38.833 43.8744 41.7398C47.1563 44.6467 49 48.5891 49 52.7V55.8C49 57.4443 48.2625 59.0213 46.9497 60.1841C45.637 61.3468 43.8565 62 42 62H7C5.14348 62 3.36301 61.3468 2.05025 60.1841C0.737498 59.0213 0 57.4443 0 55.8V52.7C0 48.5891 1.84374 44.6467 5.12563 41.7398C8.40752 38.833 12.8587 37.2 17.5 37.2H31.5Z" fill="black"/>
</svg>
